{"title":"[wakaRiP]Space Dandy [1-13] VOSTFR HD","uid":11141577,"size":3088899580,"categoryP":"video","categoryS":"hd___tv_shows","magnet":"?xt=urn:btih:5434172a149ac213478a40632f18495fa7178112&amp;dn=%5BwakaRiP%5DSpace+Dandy+%5B1-13%5D+VOSTFR+HD&amp;tr=udp%3A%2F%2Ftracker.openbittorrent.com%3A80&amp;tr=udp%3A%2F%2Fopen.demonii.com%3A1337&amp;tr=udp%3A%2F%2Ftracker.coppersurfer.tk%3A6969&amp;tr=udp%3A%2F%2Fexodus.desync.com%3A6969","seeders":4,"leechers":1,"uploader":"wakaRIP","files":-1,"time":1412176030,"description":"&quot;'Checkmate' doesn't mean you've simply cornered the enemy king. It's a declaration that the enemy king is yours. That's why I said it the first time I met you. 'Checkmate.'&quot;\n\nGeneral\nComplete name                            : [wakaRIP]Space_Dandy_NFR_720f.mp4\nFormat                                   : MPEG-4\nFormat profile                           : Base Media\nCodec ID                                 : isom\nFile size                                : 249 MiB\nDuration                                 : 24mn 9s\nOverall bit rate                         : 1 443 Kbps\nMovie name                               : [wakaRIP]Space_Dandy_NFR_720f\nWriting application                      : Lavf54.2.100\n\nVideo\nID                                       : 1\nFormat                                   : AVC\nFormat/Info                              : Advanced Video Codec\nFormat profile                           : &lt;a class=&quot;__cf_email__&quot; href=&quot;/cdn-cgi/l/email-protection&quot; data-cfemail=&quot;d59dbcb2bd9599e1fbe4&quot;&gt;[email&amp;#160;protected]&lt;/a&gt;&lt;script cf-hash='f9e31' type=&quot;text/javascript&quot;&gt;\n/* &lt;![CDATA[ */!function(){try{var t=&quot;currentScript&quot;in document?document.currentScript:function(){for(var t=document.getElementsByTagName(&quot;script&quot;),e=t.length;e--;)if(t[e].getAttribute(&quot;cf-hash&quot;))return t[e]}();if(t&amp;&amp;t.previousSibling){var e,r,n,i,c=t.previousSibling,a=c.getAttribute(&quot;data-cfemail&quot;);if(a){for(e=&quot;&quot;,r=parseInt(a.substr(0,2),16),n=2;a.length-n;n+=2)i=parseInt(a.substr(n,2),16)^r,e+=String.fromCharCode(i);e=document.createTextNode(e),c.parentNode.replaceChild(e,c)}}}catch(u){}}();/* ]]&gt; */&lt;/script&gt;\nFormat settings, CABAC                   : Yes\nFormat settings, ReFrames                : 9 frames\nCodec ID                                 : avc1\nCodec ID/Info                            : Advanced Video Coding\nDuration                                 : 24mn 9s\nBit rate                                 : 1 300 Kbps\nWidth                                    : 1 280 pixels\nHeight                                   : 720 pixels\nDisplay aspect ratio                     : 16:9\nFrame rate mode                          : Variable\nFrame rate                               : 23.976 fps\nMinimum frame rate                       : 23.810 fps\nMaximum frame rate                       : 24.390 fps\nColor space                              : YUV\nChroma subsampling                       : 4:2:0\nBit depth                                : 8 bits\nScan type                                : Progressive\nBits/(Pixel*Frame)                       : 0.059\nStream size                              : 226 MiB (91%)\nWriting library                          : x264 core 140 r2377kMod 1ca7bb9\n\nAudio\nID                                       : 2\nFormat                                   : AAC\nFormat/Info                              : Advanced Audio Codec\nFormat profile                           : LC\nCodec ID                                 : 40\nDuration                                 : 24mn 9s\nBit rate mode                            : Constant\nBit rate                                 : 128 Kbps\nChannel count                            : 2 channels\nChannel positions                        : Front: L R\nSampling rate                            : 44.1 KHz\nCompression mode                         : Lossy\nStream size                              : 22.1 MiB (9%)\n","torrent":{"xt":"urn:btih:5434172a149ac213478a40632f18495fa7178112","amp;dn":"%5BwakaRiP%5DSpace+Dandy+%5B1-13%5D+VOSTFR+HD","amp;tr":["udp%3A%2F%2Ftracker.openbittorrent.com%3A80","udp%3A%2F%2Fopen.demonii.com%3A1337","udp%3A%2F%2Ftracker.coppersurfer.tk%3A6969","udp%3A%2F%2Fexodus.desync.com%3A6969"],"infoHash":"5434172a149ac213478a40632f18495fa7178112","infoHashBuffer":{"type":"Buffer","data":[84,52,23,42,20,154,194,19,71,138,64,99,47,24,73,95,167,23,129,18]},"announce":[],"urlList":[]}}